name rise35.5848peak51.9257fall54.8793.mot
datacolumns 19
datarows 33
range 19.06658700000000 19.11992300000000
endheader
time	ground_force1_vx	ground_force1_vy	ground_force1_vz	ground_force1_px	ground_force1_py	ground_force1_pz	ground_force2_vx	ground_force2_vy	ground_force2_vz	ground_force2_px	ground_force2_py	ground_force2_pz	ground_torque1_x	ground_torque1_y	ground_torque1_z	ground_torque2_x	ground_torque2_y	ground_torque2_z	
19.06658700000000	17.66988500000000	694.11764500000004	41.64382000000000	0.20598200000000	0.00000000000000	0.11142500000000	0.00000000000000	0.00000000000000	0.00000000000000	0.00000000000000	0.00000000000000	0.00000000000000	0.00000000000000	13.79061000000000	0.00000000000000	0.00000000000000	0.00000000000000	0.00000000000000	
19.06825800000000	17.30040300000000	694.88108599999998	41.66087000000000	0.20507800000000	0.00000000000000	0.11137200000000	0.00000000000000	0.00000000000000	0.00000000000000	0.00000000000000	0.00000000000000	0.00000000000000	0.00000000000000	13.82830300000000	0.00000000000000	0.00000000000000	0.00000000000000	0.00000000000000	
19.06992100000000	16.92477900000000	695.69023100000004	41.68289400000000	0.20415700000000	0.00000000000000	0.11132100000000	0.00000000000000	0.00000000000000	0.00000000000000	0.00000000000000	0.00000000000000	0.00000000000000	0.00000000000000	13.86945500000000	0.00000000000000	0.00000000000000	0.00000000000000	0.00000000000000	
19.07158600000000	16.54268100000000	696.54331900000000	41.70966500000000	0.20321900000000	0.00000000000000	0.11127200000000	0.00000000000000	0.00000000000000	0.00000000000000	0.00000000000000	0.00000000000000	0.00000000000000	0.00000000000000	13.91401000000000	0.00000000000000	0.00000000000000	0.00000000000000	0.00000000000000	
19.07325800000000	16.15380000000000	697.43859099999997	41.74095600000000	0.20226300000000	0.00000000000000	0.11122500000000	0.00000000000000	0.00000000000000	0.00000000000000	0.00000000000000	0.00000000000000	0.00000000000000	0.00000000000000	13.96191000000000	0.00000000000000	0.00000000000000	0.00000000000000	0.00000000000000	
19.07491900000000	15.75784900000000	698.37429899999995	41.77654900000000	0.20129000000000	0.00000000000000	0.11117900000000	0.00000000000000	0.00000000000000	0.00000000000000	0.00000000000000	0.00000000000000	0.00000000000000	0.00000000000000	14.01309800000000	0.00000000000000	0.00000000000000	0.00000000000000	0.00000000000000	
19.07659400000000	15.35456700000000	699.34870599999999	41.81622800000000	0.20030200000000	0.00000000000000	0.11113500000000	0.00000000000000	0.00000000000000	0.00000000000000	0.00000000000000	0.00000000000000	0.00000000000000	0.00000000000000	14.06751800000000	0.00000000000000	0.00000000000000	0.00000000000000	0.00000000000000	
19.07825900000000	14.94371800000000	700.36009600000000	41.85978500000000	0.19929700000000	0.00000000000000	0.11109300000000	0.00000000000000	0.00000000000000	0.00000000000000	0.00000000000000	0.00000000000000	0.00000000000000	0.00000000000000	14.12511200000000	0.00000000000000	0.00000000000000	0.00000000000000	0.00000000000000	
19.07992200000000	14.52509000000000	701.40677300000004	41.90701700000000	0.19827800000000	0.00000000000000	0.11105200000000	0.00000000000000	0.00000000000000	0.00000000000000	0.00000000000000	0.00000000000000	0.00000000000000	0.00000000000000	14.18582400000000	0.00000000000000	0.00000000000000	0.00000000000000	0.00000000000000	
19.08158600000000	14.09849900000000	702.48706800000002	41.95773200000000	0.19724500000000	0.00000000000000	0.11101300000000	0.00000000000000	0.00000000000000	0.00000000000000	0.00000000000000	0.00000000000000	0.00000000000000	0.00000000000000	14.24959400000000	0.00000000000000	0.00000000000000	0.00000000000000	0.00000000000000	
19.08325900000000	13.66378600000000	703.59933999999998	42.01174400000000	0.19619800000000	0.00000000000000	0.11097500000000	0.00000000000000	0.00000000000000	0.00000000000000	0.00000000000000	0.00000000000000	0.00000000000000	0.00000000000000	14.31636500000000	0.00000000000000	0.00000000000000	0.00000000000000	0.00000000000000	
19.08492300000000	13.22081700000000	704.74198500000000	42.06887700000000	0.19513900000000	0.00000000000000	0.11093900000000	0.00000000000000	0.00000000000000	0.00000000000000	0.00000000000000	0.00000000000000	0.00000000000000	0.00000000000000	14.38607700000000	0.00000000000000	0.00000000000000	0.00000000000000	0.00000000000000	
19.08659000000000	12.76948800000000	705.91343300000005	42.12896500000000	0.19406900000000	0.00000000000000	0.11090300000000	0.00000000000000	0.00000000000000	0.00000000000000	0.00000000000000	0.00000000000000	0.00000000000000	0.00000000000000	14.45867000000000	0.00000000000000	0.00000000000000	0.00000000000000	0.00000000000000	
19.08825200000000	12.30972000000000	707.11215300000003	42.19185300000000	0.19298900000000	0.00000000000000	0.11086900000000	0.00000000000000	0.00000000000000	0.00000000000000	0.00000000000000	0.00000000000000	0.00000000000000	0.00000000000000	14.53408300000000	0.00000000000000	0.00000000000000	0.00000000000000	0.00000000000000	
19.08992600000000	11.84146000000000	708.33665599999995	42.25739600000000	0.19189900000000	0.00000000000000	0.11083500000000	0.00000000000000	0.00000000000000	0.00000000000000	0.00000000000000	0.00000000000000	0.00000000000000	0.00000000000000	14.61225300000000	0.00000000000000	0.00000000000000	0.00000000000000	0.00000000000000	
19.09158700000000	11.36468300000000	709.58549900000003	42.32546100000000	0.19080200000000	0.00000000000000	0.11080200000000	0.00000000000000	0.00000000000000	0.00000000000000	0.00000000000000	0.00000000000000	0.00000000000000	0.00000000000000	14.69311600000000	0.00000000000000	0.00000000000000	0.00000000000000	0.00000000000000	
19.09325200000000	10.87938900000000	710.85728099999994	42.39592500000000	0.18969700000000	0.00000000000000	0.11077100000000	0.00000000000000	0.00000000000000	0.00000000000000	0.00000000000000	0.00000000000000	0.00000000000000	0.00000000000000	14.77660600000000	0.00000000000000	0.00000000000000	0.00000000000000	0.00000000000000	
19.09492400000000	10.38560700000000	712.15065200000004	42.46868000000000	0.18858700000000	0.00000000000000	0.11074000000000	0.00000000000000	0.00000000000000	0.00000000000000	0.00000000000000	0.00000000000000	0.00000000000000	0.00000000000000	14.86265400000000	0.00000000000000	0.00000000000000	0.00000000000000	0.00000000000000	
19.09659100000000	9.88338800000000	713.46430799999996	42.54362900000000	0.18747100000000	0.00000000000000	0.11070900000000	0.00000000000000	0.00000000000000	0.00000000000000	0.00000000000000	0.00000000000000	0.00000000000000	0.00000000000000	14.95119100000000	0.00000000000000	0.00000000000000	0.00000000000000	0.00000000000000	
19.09825400000000	9.37281200000000	714.79699400000004	42.62068600000000	0.18635200000000	0.00000000000000	0.11068000000000	0.00000000000000	0.00000000000000	0.00000000000000	0.00000000000000	0.00000000000000	0.00000000000000	0.00000000000000	15.04214300000000	0.00000000000000	0.00000000000000	0.00000000000000	0.00000000000000	
19.09992300000000	8.85398200000000	716.14750700000002	42.69978000000000	0.18523000000000	0.00000000000000	0.11065000000000	0.00000000000000	0.00000000000000	0.00000000000000	0.00000000000000	0.00000000000000	0.00000000000000	0.00000000000000	15.13543600000000	0.00000000000000	0.00000000000000	0.00000000000000	0.00000000000000	
19.10158500000000	8.32702700000000	717.51468999999997	42.78085200000000	0.18410700000000	0.00000000000000	0.11062200000000	0.00000000000000	0.00000000000000	0.00000000000000	0.00000000000000	0.00000000000000	0.00000000000000	0.00000000000000	15.23099100000000	0.00000000000000	0.00000000000000	0.00000000000000	0.00000000000000	
19.10325900000000	7.79210000000000	718.89743899999996	42.86385600000000	0.18298300000000	0.00000000000000	0.11059300000000	0.00000000000000	0.00000000000000	0.00000000000000	0.00000000000000	0.00000000000000	0.00000000000000	0.00000000000000	15.32872700000000	0.00000000000000	0.00000000000000	0.00000000000000	0.00000000000000	
19.10492600000000	7.24937700000000	720.29469800000004	42.94875700000000	0.18186000000000	0.00000000000000	0.11056500000000	0.00000000000000	0.00000000000000	0.00000000000000	0.00000000000000	0.00000000000000	0.00000000000000	0.00000000000000	15.42855900000000	0.00000000000000	0.00000000000000	0.00000000000000	0.00000000000000	
19.10659100000000	6.69905700000000	721.70545900000002	43.03553400000000	0.18073700000000	0.00000000000000	0.11053700000000	0.00000000000000	0.00000000000000	0.00000000000000	0.00000000000000	0.00000000000000	0.00000000000000	0.00000000000000	15.53040100000000	0.00000000000000	0.00000000000000	0.00000000000000	0.00000000000000	
19.10825300000000	6.14136100000000	723.12876100000005	43.12417800000000	0.17961700000000	0.00000000000000	0.11051000000000	0.00000000000000	0.00000000000000	0.00000000000000	0.00000000000000	0.00000000000000	0.00000000000000	0.00000000000000	15.63416000000000	0.00000000000000	0.00000000000000	0.00000000000000	0.00000000000000	
19.10992400000000	5.57653200000000	724.56369099999995	43.21469200000000	0.17850000000000	0.00000000000000	0.11048200000000	0.00000000000000	0.00000000000000	0.00000000000000	0.00000000000000	0.00000000000000	0.00000000000000	0.00000000000000	15.73974200000000	0.00000000000000	0.00000000000000	0.00000000000000	0.00000000000000	
19.11159600000000	5.00483400000000	726.00937799999997	43.30709100000000	0.17738600000000	0.00000000000000	0.11045500000000	0.00000000000000	0.00000000000000	0.00000000000000	0.00000000000000	0.00000000000000	0.00000000000000	0.00000000000000	15.84704900000000	0.00000000000000	0.00000000000000	0.00000000000000	0.00000000000000	
19.11325200000000	4.42654900000000	727.46499400000005	43.40140000000000	0.17627700000000	0.00000000000000	0.11042800000000	0.00000000000000	0.00000000000000	0.00000000000000	0.00000000000000	0.00000000000000	0.00000000000000	0.00000000000000	15.95597800000000	0.00000000000000	0.00000000000000	0.00000000000000	0.00000000000000	
19.11491800000000	3.84197900000000	728.92975200000001	43.49765500000000	0.17517300000000	0.00000000000000	0.11040100000000	0.00000000000000	0.00000000000000	0.00000000000000	0.00000000000000	0.00000000000000	0.00000000000000	0.00000000000000	16.06642400000000	0.00000000000000	0.00000000000000	0.00000000000000	0.00000000000000	
19.11659300000000	3.25144400000000	730.40290300000004	43.59590400000000	0.17407400000000	0.00000000000000	0.11037400000000	0.00000000000000	0.00000000000000	0.00000000000000	0.00000000000000	0.00000000000000	0.00000000000000	0.00000000000000	16.17827800000000	0.00000000000000	0.00000000000000	0.00000000000000	0.00000000000000	
19.11826000000000	2.65528000000000	731.88373100000001	43.69620400000000	0.17298100000000	0.00000000000000	0.11034700000000	0.00000000000000	0.00000000000000	0.00000000000000	0.00000000000000	0.00000000000000	0.00000000000000	0.00000000000000	16.29142600000000	0.00000000000000	0.00000000000000	0.00000000000000	0.00000000000000	
19.11992300000000	2.05384000000000	733.37155700000005	43.79862000000000	0.17189400000000	0.00000000000000	0.11032000000000	0.00000000000000	0.00000000000000	0.00000000000000	0.00000000000000	0.00000000000000	0.00000000000000	0.00000000000000	16.40575200000000	0.00000000000000	0.00000000000000	0.00000000000000	0.00000000000000	
